<svg width="32" height="32" viewBox="0 0 32 32" fill="none" xmlns="http://www.w3.org/2000/svg">
  <rect width="32" height="32" rx="6" fill="#6366F1"/>
  <path d="M8 11C8 10.4477 8.44772 10 9 10H23C23.5523 10 24 10.4477 24 11V13C24 13.5523 23.5523 14 23 14H9C8.44772 14 8 13.5523 8 13V11Z" fill="white"/>
  <path d="M8 19C8 18.4477 8.44772 18 9 18H18C18.5523 18 19 18.4477 19 19V21C19 21.5523 18.5523 22 18 22H9C8.44772 22 8 21.5523 8 21V19Z" fill="white"/>
  <circle cx="22" cy="20" r="2" fill="white"/>
</svg>
